<?xml version="1.0" encoding="UTF-8"?>
<svg width="450px" height="251px" viewBox="0 0 450 251" version="1.1" xmlns="http://www.w3.org/2000/svg" xmlns:xlink="http://www.w3.org/1999/xlink">
    <!-- Generator: Sketch 61 (89581) - https://sketch.com -->
    <title>pic_slogen</title>
    <desc>Created with Sketch.</desc>
    <g id="Page-1" stroke="none" stroke-width="1" fill="none" fill-rule="evenodd">
        <g id="BCZ官网-视觉稿" transform="translate(-835.000000, -202.000000)">
            <g id="p1">
                <g id="pic_slogen" transform="translate(835.000000, 202.000000)">
                    <g id="Group-38" fill="#FFFFFF">
                        <path d="M404.244937,167.866789 L404.23622,168.231806 L403.518583,184.340022 L367.705109,190.760178 L368.994675,163.528412 L393.728467,159.094479 C399.174966,158.118161 404.260926,162.416456 404.244937,167.866789 Z M393.11161,169.836704 L379.737314,172.222674 L379.453847,178.162238 L392.766086,175.787217 L393.11161,169.836704 Z" id="形状结合"></path>
                        <path d="M446.207876,160.214228 L446.199159,160.579245 L445.481354,176.68746 L409.668048,183.107616 L410.957613,155.875851 L435.691405,151.441917 C441.137904,150.4656 446.223865,154.763894 446.207876,160.214228 Z M435.074549,162.184143 L421.700253,164.570113 L421.416785,170.509677 L434.729025,168.134655 L435.074549,162.184143 Z" id="形状结合"></path>
                        <polygon id="路径" points="441.832401 117.630049 441.548425 123.574132 442.144437 123.468055 448.108208 122.415338 447.530734 134.501059 416.822477 139.965726 412.57933 144.047008 428.246813 141.25894 435.626151 147.765459 435.572933 147.774772 436.503765 148.59568 419.061923 151.699527 411.682585 145.193008 411.735797 145.183528 411.55931 145.028029 401.236473 154.957266 381.045934 158.550309 396.632101 143.558603 369.505304 148.401232 370.077122 136.307616 378.55855 134.783282 400.332121 130.908623 400.612791 125.036028 417.401073 122.048557 417.120403 127.921151 424.760143 126.561603 425.044119 120.61752"></polygon>
                        <path d="M407.26497,103.62 L407.256257,103.985134 L406.538909,120.10139 L370.733542,126.742454 L372.02244,99.4967867 L396.750651,94.9097662 C402.196035,93.9002088 407.280921,98.1685988 407.26497,103.62 Z M396.133947,105.658699 L382.762786,108.127238 L382.479427,114.069817 L395.788717,111.61273 L396.133947,105.658699 Z" id="形状结合"></path>
                        <path d="M449.260115,96.5212221 L449.251393,96.8860852 L448.533436,112.985425 L412.711007,119.156368 L414.001132,91.9401786 L438.741111,87.6784159 C444.18897,86.7399452 449.276158,91.0724004 449.260115,96.5212221 Z M438.124008,98.4137746 L424.746372,100.706792 L424.462778,106.642839 L437.778345,104.360435 L438.124008,98.4137746 Z" id="形状结合"></path>
                        <polygon id="路径" points="296.28934 175.554806 294.997469 203.495783 280.074453 206.151405 281.365713 178.210734"></polygon>
                        <polygon id="路径" points="326.497417 146.368059 326.246135 151.710467 354.769841 146.642088 354.150395 159.607002 325.636457 164.675114 325.63052 164.803586 324.056967 198.02708 305.032625 201.404517 305.67969 188.555991 309.720357 187.865184 310.693121 167.331111 281.864576 172.455287 282.484205 159.486813 311.321438 154.36252 311.574561 149.023836"></polygon>
                        <polygon id="路径" points="353.902375 165.092893 352.610499 193.033716 337.687488 195.689493 338.978748 167.748822"></polygon>
                        <polygon id="路径" points="348.133954 103.309 339.21237 120.382283 323.045869 123.25913 331.810429 132.661946 355.669393 128.35813 355.055044 141.214384 326.563462 146.343127 317.790362 136.763163 311.356745 148.930165 309.791519 149.207578 282.772095 154.004316 283.419964 140.443946 284.988262 140.165618 315.881047 134.678271 295.687112 112.627348 310.653154 109.964019 323.020684 123.232081 331.922532 106.196952 346.012454 103.689725"></polygon>
                        <path d="M261.787762,33.2494679 L272.692123,31.308989 C277.24656,30.4985212 281.459751,34.2481785 281.220971,38.7859677 L281.196288,39.1113849 L278.889493,86.9686502 L283.590965,86.1446386 L282.97626,99.0087258 L264.317896,102.261538 L267.122594,45.0422535 L261.173723,46.100953 L261.787762,33.2494679 Z" id="路径"></path>
                        <polygon id="路径" points="311.760555 41.1759364 313.244798 53.6298706 306.945324 54.7382576 306.007554 74.365 305.951681 74.9779305 315.220375 70.2084023 316.713473 82.7396004 314.3938 83.9336469 286.059049 98.5224982 286.710819 84.8826511 289.100709 83.6528514 292.834851 81.7276691 293.91716 59.0768509 294.106996 56.9972264 288.854995 57.9204727 287.973227 58.0696386 288.611089 45.2445842 310.637023 41.3677656"></polygon>
                        <polygon id="路径" points="323.45193 2.20590262 325.718323 20.9835899 335.889172 19.1737774 335.886973 19.2194008 340.001336 18.4871244 339.391964 31.2414603 327.214747 33.3936994 332.576865 77.8201512 337.822534 76.9304297 337.218364 89.5758113 321.32952 92.3741236 319.966961 81.0851614 319.907812 80.7378287 319.859314 80.3864737 314.460263 35.6533533 291.784029 39.6884855 291.786234 39.6430216 288.8474 40.165985 289.455593 27.4366943 312.963565 23.2534543 310.716401 4.62359987 310.703366 4.4745175"></polygon>
                        <polygon id="路径" points="282.554378 9.54390902 281.775109 25.052879 268.506011 27.414158 269.285441 11.9051887"></polygon>
                        <polygon id="路径" points="338.589293 -1.63296043e-13 338.794971 1.70400035 340.255975 13.8851516 329.051533 15.8790486 327.742719 5.03516367 327.380714 1.99451714"></polygon>
                        <polygon id="路径" points="226.700292 125.447394 242.913878 122.57 241.610512 149.677278 273.20146 144.070908 272.583165 156.97594 241.459643 162.501305 239.256928 166.649372 250.158119 164.730688 270.201285 207.107 255.943611 209.637334 237.290465 170.352459 212.32335 217.37193 194.162044 220.626 223.319381 165.720495 196.753782 170.434999 197.372083 157.530122 225.395914 152.55667"></polygon>
                        <path d="M247.172107,56.7204706 L246.596202,68.7721897 L216.759655,74.0678287 L216.514319,79.1663946 L235.316982,75.820527 C240.753266,74.8531848 245.850842,79.177529 245.82455,84.6227442 L245.815867,84.9717932 L245.359192,95.1453771 L245.335896,95.1493828 L244.786512,106.647826 L226.695644,109.858729 L227.271058,97.8153806 L231.396147,97.0812585 L231.819764,88.3763951 L220.171654,90.4702457 L202.568588,93.593231 L203.577717,73.4477432 L201.647902,76.9683559 L201.648787,76.9489287 L191.416712,95.57819 L176.169785,98.2913991 L174.906191,98.5182676 L196.802686,59.8628497 L212.549042,57.0812048 L209.086253,63.3984185 L247.172107,56.7204706 Z" id="路径"></path>
                        <path d="M250.907078,14.8835 L235.880466,42.2236665 L254.4421,38.9091321 L253.860919,51.4001605 L237.943631,54.2510429 L176.233305,65.2504873 L176.765449,52.7037951 L206.01018,47.5191583 L206.315651,41.1368224 L186.962524,44.5809186 L186.966665,44.4934178 L186.487326,44.5788447 L187.086556,32.061197 L191.304724,31.3082079 L191.306871,31.2842049 L200.278427,29.6876727 L200.27837,29.7742435 L206.915844,28.5931128 L207.199809,22.6612319 L220.579722,20.2803135 L220.294495,26.2123469 L231.40421,24.2352607 L235.11849,17.6930804 L250.907078,14.8835 Z M223.549977,38.0698892 L219.691468,38.7565181 L219.384115,45.1481663 L219.547941,45.1191817 L223.549977,38.0698892 Z" id="形状结合"></path>
                        <path d="M88.313961,63.069076 L100.369117,60.9236769 C105.103928,60.0811114 109.483978,63.97927 109.235742,68.6967735 L109.210082,69.0350786 L106.918551,116.553475 L114.289303,115.261628 L113.611008,128.644468 L91.770028,132.452023 L94.5790129,75.200833 L87.6306569,76.4374626 L88.2224906,64.0498288 L88.313961,63.069076 Z" id="路径"></path>
                        <path d="M163.643743,98.1493377 L163.633995,98.525402 L162.668239,120.142029 L118.756463,127.956182 L120.372912,93.8591224 L151.851633,88.2575571 C157.956624,87.171169 163.681383,92.0319477 163.643743,98.1493377 Z M149.929259,101.91231 L133.530837,104.816045 L133.175655,112.252838 L149.498066,109.36254 L149.929259,101.91231 Z" id="形状结合"></path>
                        <path d="M167.56066,29.767 L166.921989,43.1325956 L163.313392,43.7748733 L163.308546,43.8251124 L143.315422,47.3829624 L143.072444,52.2919749 L154.430016,50.2765632 C156.77921,49.8583914 159.272265,50.3849757 161.331659,51.7197153 L161.737585,51.9973982 L162.087735,52.2619885 C164.367276,54.065861 165.663265,56.7402515 165.565097,59.4355817 L165.193263,65.1235907 L151.033449,67.6239004 L151.227516,64.0932635 L142.410988,65.6621156 L142.065375,72.6479358 L168.767659,67.9025065 L168.129313,81.2632932 L115.121433,90.696168 L115.760323,77.3227771 L127.91126,75.1633649 L128.256831,68.181028 L116.093772,70.3455294 L116.73316,56.9628518 L128.918798,54.8019322 L129.16126,49.9017089 L116.966803,52.0717131 L117.608069,38.6533804 L124.787248,37.3845832 L124.790127,37.3258759 L167.56066,29.767 Z" id="路径"></path>
                        <polygon id="路径" points="109.954458 39.5853874 109.144326 55.708574 95.3498863 58.1633697 96.1600181 42.0401831"></polygon>
                        <path d="M48.2543331,75.2439 L48.0092573,80.0412061 L61.1339157,77.7056188 C63.6159282,77.2640068 66.2598696,77.8864409 68.3719011,79.4098626 C70.8553984,81.2012058 72.2775632,83.9986708 72.1614585,86.8147038 L72.1360465,87.1987307 L71.7504352,94.4623831 L57.7309779,96.9570969 L57.9618712,91.3905417 L47.333068,93.2818919 L46.8801232,102.149027 L66.7923859,98.6056344 L66.7910945,98.6358023 L78.6341464,96.5282686 L78.0018666,109.761247 L46.2756684,115.407087 L21.0293058,145.946697 L-2.0968674e-13,149.744927 L25.3227302,119.135668 L10.2640172,121.815418 L10.2676734,121.784944 L0.45907611,123.530428 L1.09135022,110.297292 L9.17361733,108.858962 L10.1914558,86.7699285 L33.9901168,82.5359212 L34.2351926,77.7386151 L48.2543331,75.2439 Z M33.3137691,95.7766064 L23.6011709,97.5051322 L23.1929162,106.364248 L32.86083,104.6439 L33.3137691,95.7766064 Z" id="Combined-Shape"></path>
                        <polygon id="路径" points="59.0195075 116.558131 76.8602723 135.923652 60.838311 138.774868 42.9973821 119.409188"></polygon>
                        <polygon id="路径" points="64.52066 48.0978312 64.2952187 52.9699458 72.1637763 51.5695456 80.8555512 50.0365626 80.2232714 63.2695413 63.6823045 66.2129615 63.3994381 72.3252563 49.3801392 74.8199707 49.6630113 68.7078339 33.2133199 71.6350649 32.8981971 77.7091467 18.8788983 80.2038611 19.194021 74.1297794 11.8321876 75.4399749 11.8335831 75.4259211 2.67963448 77.0548323 3.31191427 63.8218537 19.8818336 60.8731887 20.1371945 55.9522319 34.1564877 53.4573595 33.9011325 58.3784742 50.2759198 55.4646602 50.5013611 50.5925456"></polygon>
                    </g>
                    <polygon id="Rectangle-Copy-3" fill="#F23E3E" transform="translate(319.477395, 221.605011) rotate(-10.000000) translate(-319.477395, -221.605011) " points="188.327294 217.108331 452.404971 216.021127 450.127344 226.955403 186.549819 227.188895"></polygon>
                </g>
            </g>
        </g>
    </g>
</svg>